# xmcd
#
# Track frame offsets: 
#        150
#        16475
#        27785
#        47919
#        61501
#        77120
#        93457
#        105539
#        119679
#        148689
#        162786
#        189193
#
# Disc length: 2845 seconds
#
# Revision: 0
# Processed by: cddbd v1.5.2PL0 Copyright (c) Steve Scherf et al.
# Submitted via: ExactAudioCopy v0.95b3
#
DISCID=940b1b0c
DTITLE=The Pretenders  - The Pretenders (2006 remaster) - Disc 1 - FLA
DTITLE=C
DYEAR=1900
DGENRE=
TTITLE0=Precious
TTITLE1=The Phone Call
TTITLE2=Up The Neck
TTITLE3=Tattooed Love Boys
TTITLE4=Space Invader
TTITLE5=The Wait
TTITLE6=Stop Your Sobbing
TTITLE7=Kid
TTITLE8=Private Life
TTITLE9=Brass In Pocket
TTITLE10=Lovers Of Today
TTITLE11=Mystery Achievement
EXTD=
EXTT0=
EXTT1=
EXTT2=
EXTT3=
EXTT4=
EXTT5=
EXTT6=
EXTT7=
EXTT8=
EXTT9=
EXTT10=
EXTT11=
PLAYORDER=
